<svg width="59" height="49" viewBox="0 0 59 49" fill="none" xmlns="http://www.w3.org/2000/svg">
<path d="M52.0345 9C58.6552 16.0021 58.6552 25.3383 52.0345 32.3404" stroke="#16A34A" stroke-width="3" stroke-linecap="square" stroke-linejoin="round"/>
<path d="M46.1494 12.501C50.5632 17.1691 50.5632 24.1712 46.1494 28.8393" stroke="#16A34A" stroke-width="3" stroke-linecap="square" stroke-linejoin="round"/>
<path d="M41 16.5856C43.0598 19.2119 43.0604 22.1287 41 24.7549" stroke="#16A34A" stroke-width="3" stroke-linecap="square" stroke-linejoin="round"/>
<path d="M16.896 26.64C16.7467 27.792 16.416 28.8373 15.904 29.776C15.392 30.7147 14.7413 31.5253 13.952 32.208C13.1627 32.8693 12.2773 33.3813 11.296 33.744C10.3147 34.1067 9.26933 34.288 8.16 34.288C6.34667 34.288 4.864 33.8507 3.712 32.976C2.56 32.08 1.67467 30.9493 1.056 29.584L3.488 28.048C3.91467 29.0293 4.544 29.8933 5.376 30.64C6.208 31.3653 7.21067 31.728 8.384 31.728C9.42933 31.728 10.3467 31.504 11.136 31.056C11.9467 30.608 12.608 30 13.12 29.232C13.632 28.464 13.9627 27.6 14.112 26.64C14.2613 25.7013 14.1867 24.8587 13.888 24.112C13.6107 23.344 13.152 22.7253 12.512 22.256C11.872 21.7867 11.072 21.5413 10.112 21.52C9.04533 21.4773 8.05333 21.6373 7.136 22C6.21867 22.3627 5.23733 22.864 4.192 23.504L8.832 11.6H19.168L18.752 14H10.624L8.128 19.92C8.66133 19.6853 9.20533 19.4933 9.76 19.344C10.3147 19.1733 10.88 19.088 11.456 19.088C12.7787 19.088 13.8667 19.4507 14.72 20.176C15.5947 20.9013 16.2133 21.84 16.576 22.992C16.96 24.1227 17.0667 25.3387 16.896 26.64Z" fill="#16A34A"/>
<path d="M26.184 25.2L26.632 22.64H36.744C36.4667 24.1547 35.9867 25.616 35.304 27.024C34.6427 28.4107 33.7893 29.6587 32.744 30.768C31.6987 31.856 30.4827 32.72 29.096 33.36C27.7093 34 26.1627 34.32 24.456 34.32C22.8347 34.32 21.4053 34.0107 20.168 33.392C18.9307 32.7733 17.9067 31.9307 17.096 30.864C16.2853 29.776 15.72 28.5387 15.4 27.152C15.1013 25.7653 15.0587 24.3147 15.272 22.8C15.528 21.2 16.0293 19.7067 16.776 18.32C17.5227 16.912 18.472 15.6853 19.624 14.64C20.776 13.5947 22.0773 12.7733 23.528 12.176C25 11.5787 26.5573 11.28 28.2 11.28C30.0987 11.2587 31.7627 11.664 33.192 12.496C34.6213 13.3067 35.7307 14.5013 36.52 16.08L34.408 17.776C33.832 16.56 32.9893 15.632 31.88 14.992C30.7707 14.3307 29.448 14 27.912 14C26.696 14 25.544 14.2347 24.456 14.704C23.368 15.152 22.376 15.7813 21.48 16.592C20.6053 17.3813 19.8693 18.3093 19.272 19.376C18.696 20.4427 18.312 21.584 18.12 22.8C17.9493 23.952 17.9707 25.0507 18.184 26.096C18.3973 27.1413 18.7813 28.08 19.336 28.912C19.912 29.7227 20.648 30.3733 21.544 30.864C22.4613 31.3333 23.5173 31.568 24.712 31.568C25.8 31.568 26.792 31.3973 27.688 31.056C28.584 30.7147 29.384 30.2453 30.088 29.648C30.8133 29.0507 31.4427 28.368 31.976 27.6C32.5093 26.832 32.9573 26.032 33.32 25.2H26.184Z" fill="#16A34A"/>
<path d="M4.75852 46V37.2727H8.2017C8.86364 37.2727 9.42756 37.3991 9.89347 37.652C10.3594 37.902 10.7145 38.25 10.9588 38.696C11.206 39.1392 11.3295 39.6506 11.3295 40.2301C11.3295 40.8097 11.2045 41.321 10.9545 41.7642C10.7045 42.2074 10.3423 42.5526 9.8679 42.7997C9.39631 43.0469 8.82528 43.1705 8.15483 43.1705H5.96023V41.6918H7.85653C8.21165 41.6918 8.50426 41.6307 8.73438 41.5085C8.96733 41.3835 9.14063 41.2116 9.25426 40.9929C9.37074 40.7713 9.42898 40.517 9.42898 40.2301C9.42898 39.9403 9.37074 39.6875 9.25426 39.4716C9.14063 39.2528 8.96733 39.0838 8.73438 38.9645C8.50142 38.8423 8.20597 38.7812 7.84801 38.7812H6.60369V46H4.75852ZM12.5281 46V37.2727H14.3732V40.8736H18.119V37.2727H19.9599V46H18.119V42.3949H14.3732V46H12.5281ZM29.5011 41.6364C29.5011 42.5881 29.3207 43.3977 28.9599 44.0653C28.6019 44.733 28.1133 45.2429 27.494 45.5952C26.8775 45.9446 26.1843 46.1193 25.4144 46.1193C24.6388 46.1193 23.9428 45.9432 23.3263 45.5909C22.7099 45.2386 22.2227 44.7287 21.8647 44.0611C21.5067 43.3935 21.3278 42.5852 21.3278 41.6364C21.3278 40.6847 21.5067 39.875 21.8647 39.2074C22.2227 38.5398 22.7099 38.0312 23.3263 37.6818C23.9428 37.3295 24.6388 37.1534 25.4144 37.1534C26.1843 37.1534 26.8775 37.3295 27.494 37.6818C28.1133 38.0312 28.6019 38.5398 28.9599 39.2074C29.3207 39.875 29.5011 40.6847 29.5011 41.6364ZM27.6303 41.6364C27.6303 41.0199 27.538 40.5 27.3533 40.0767C27.1715 39.6534 26.9144 39.3324 26.582 39.1136C26.2496 38.8949 25.8604 38.7855 25.4144 38.7855C24.9684 38.7855 24.5792 38.8949 24.2468 39.1136C23.9144 39.3324 23.6559 39.6534 23.4712 40.0767C23.2894 40.5 23.1985 41.0199 23.1985 41.6364C23.1985 42.2528 23.2894 42.7727 23.4712 43.196C23.6559 43.6193 23.9144 43.9403 24.2468 44.1591C24.5792 44.3778 24.9684 44.4872 25.4144 44.4872C25.8604 44.4872 26.2496 44.3778 26.582 44.1591C26.9144 43.9403 27.1715 43.6193 27.3533 43.196C27.538 42.7727 27.6303 42.2528 27.6303 41.6364ZM38.1676 37.2727V46H36.5739L32.777 40.5071H32.7131V46H30.8679V37.2727H32.4872L36.2543 42.7614H36.331V37.2727H38.1676ZM39.6921 46V37.2727H45.5728V38.794H41.5373V40.8736H45.2702V42.3949H41.5373V44.4787H45.5898V46H39.6921ZM51.7741 39.7827C51.7401 39.4389 51.5938 39.1719 51.3352 38.9815C51.0767 38.7912 50.7259 38.696 50.2827 38.696C49.9815 38.696 49.7273 38.7386 49.5199 38.8239C49.3125 38.9062 49.1534 39.0213 49.0426 39.169C48.9347 39.3168 48.8807 39.4844 48.8807 39.6719C48.875 39.8281 48.9077 39.9645 48.9787 40.081C49.0526 40.1974 49.1534 40.2983 49.2812 40.3835C49.4091 40.4659 49.5568 40.5384 49.7244 40.6009C49.892 40.6605 50.071 40.7116 50.2614 40.7543L51.0455 40.9418C51.4261 41.027 51.7756 41.1406 52.0938 41.2827C52.4119 41.4247 52.6875 41.5994 52.9205 41.8068C53.1534 42.0142 53.3338 42.2585 53.4616 42.5398C53.5923 42.821 53.6591 43.1435 53.6619 43.5071C53.6591 44.0412 53.5227 44.5043 53.2528 44.8963C52.9858 45.2855 52.5994 45.5881 52.0938 45.804C51.5909 46.017 50.9844 46.1236 50.2741 46.1236C49.5696 46.1236 48.956 46.0156 48.4332 45.7997C47.9134 45.5838 47.5071 45.2642 47.2145 44.8409C46.9247 44.4148 46.7727 43.8878 46.7585 43.2599H48.544C48.5639 43.5526 48.6477 43.7969 48.7955 43.9929C48.946 44.1861 49.1463 44.3324 49.3963 44.4318C49.6491 44.5284 49.9347 44.5767 50.2528 44.5767C50.5653 44.5767 50.8366 44.5312 51.0668 44.4403C51.2997 44.3494 51.4801 44.223 51.608 44.0611C51.7358 43.8991 51.7997 43.7131 51.7997 43.5028C51.7997 43.3068 51.7415 43.142 51.625 43.0085C51.5114 42.875 51.3438 42.7614 51.1222 42.6676C50.9034 42.5739 50.6349 42.4886 50.3168 42.4119L49.3665 42.1733C48.6307 41.9943 48.0497 41.7145 47.6236 41.3338C47.1974 40.9531 46.9858 40.4403 46.9886 39.7955C46.9858 39.267 47.1264 38.8054 47.4105 38.4105C47.6974 38.0156 48.0909 37.7074 48.5909 37.4858C49.0909 37.2642 49.6591 37.1534 50.2955 37.1534C50.9432 37.1534 51.5085 37.2642 51.9915 37.4858C52.4773 37.7074 52.8551 38.0156 53.125 38.4105C53.3949 38.8054 53.5341 39.2628 53.5426 39.7827H51.7741Z" fill="black"/>
</svg>
